<?xml version="1.0" standalone="no"?>
<!DOCTYPE svg PUBLIC "-//W3C//DTD SVG 20010904//EN"
 "http://www.w3.org/TR/2001/REC-SVG-20010904/DTD/svg10.dtd">
<svg version="1.0" xmlns="http://www.w3.org/2000/svg"
 width="530.000000pt" height="528.000000pt" viewBox="0 0 530.000000 528.000000"
 preserveAspectRatio="xMidYMid meet">

<g transform="translate(0.000000,528.000000) scale(0.100000,-0.100000)"
fill="#000000" stroke="none">
<path d="M0 2640 l0 -2640 2650 0 2650 0 0 2640 0 2640 -2650 0 -2650 0 0
-2640z m2000 1451 c0 -10 -9 -21 -19 -24 -25 -6 -30 -1 -24 24 7 25 43 25 43
0z m-40 -141 c0 -4 -11 -10 -25 -12 -27 -6 -32 1 -14 19 12 12 39 7 39 -7z
m-13 -262 c-3 -8 -6 -5 -6 6 -1 11 2 17 5 13 3 -3 4 -12 1 -19z m-33 -122 c-3
-15 -8 -25 -11 -23 -2 3 -1 17 3 31 3 15 8 25 11 23 2 -3 1 -17 -3 -31z m-20
-70 c-3 -15 -8 -25 -11 -23 -2 3 -1 17 3 31 3 15 8 25 11 23 2 -3 1 -17 -3
-31z m-35 -125 c-12 -44 -24 -79 -26 -77 -3 2 5 41 17 86 13 44 24 79 26 77 3
-2 -5 -41 -17 -86z m-60 -210 c-18 -61 -34 -109 -37 -107 -2 3 5 36 16 73 11
37 26 88 32 112 6 23 13 41 16 38 3 -3 -9 -55 -27 -116z m-49 -171 c-6 -23
-14 -40 -16 -37 -3 3 0 24 7 46 16 54 24 46 9 -9z m490 -16 c0 -33 -100 -353
-113 -361 -6 -4 -8 3 -4 18 3 13 9 56 13 96 5 59 11 75 29 87 23 15 61 126 51
152 -3 8 1 14 9 14 8 0 15 -3 15 -6z m-526 -103 c-9 -34 -20 -64 -24 -66 -4
-3 2 27 13 65 11 39 22 68 24 66 3 -2 -3 -32 -13 -65z m-18 -577 c-8 -27 -30
-101 -49 -164 -36 -121 -62 -218 -62 -235 0 -5 11 -12 25 -16 24 -7 23 -7 -6
-8 -23 -1 -34 -8 -42 -26 -11 -25 -11 -25 32 -25 40 0 49 -5 94 -52 62 -65 96
-108 86 -108 -5 0 -19 12 -32 28 l-23 27 7 -25 c12 -40 5 -198 -12 -285 -16
-81 -27 -109 -50 -132 -24 -24 -63 -11 -43 14 9 10 8 13 -4 13 -8 0 -18 -6
-21 -12 -3 -7 -2 1 1 17 4 17 7 80 7 140 1 99 -2 116 -24 159 -91 177 -327 71
-588 -263 -24 -31 -46 -58 -50 -61 -22 -20 84 133 153 220 48 61 54 76 94 220
23 85 49 178 57 207 14 52 15 52 47 46 17 -3 50 -12 71 -20 34 -12 41 -11 48
1 4 8 27 38 51 68 40 50 177 234 222 297 11 16 21 28 22 27 2 -2 -4 -25 -11
-52z m321 -6 c-3 -8 -6 -5 -6 6 -1 11 2 17 5 13 3 -3 4 -12 1 -19z m-7 -35 c0
-22 -17 -50 -25 -42 -5 6 14 59 22 59 1 0 3 -8 3 -17z m-240 -785 c-9 -30 -10
-29 -5 16 3 27 6 72 7 100 2 45 2 43 5 -16 2 -37 -1 -82 -7 -100z m57 -198
c14 -11 21 -20 14 -20 -17 0 -91 70 -91 87 0 9 11 2 26 -16 14 -17 37 -40 51
-51z m-163 -36 c13 -5 13 -12 -5 -57 -24 -62 -31 -70 -52 -61 -13 4 -17 19
-17 54 0 44 3 49 28 58 15 6 28 11 29 11 1 1 8 -2 17 -5z m113 -16 c-3 -8 -6
-5 -6 6 -1 11 2 17 5 13 3 -3 4 -12 1 -19z m-806 -131 c-36 -37 -42 -20 -10
32 19 31 22 33 31 17 8 -15 4 -25 -21 -49z"/>
</g>
</svg>
